<?xml version="1.0" standalone="no"?><!DOCTYPE svg PUBLIC "-//W3C//DTD SVG 1.1//EN" "http://www.w3.org/Graphics/SVG/1.1/DTD/svg11.dtd"><svg xmlns="http://www.w3.org/2000/svg" width="618" height="195" fill-rule="nonzero"><path d="M516 6.5V13h-71v88.5l-5.1 43.3-4.7 43.8c.5.4 30.1 4.4 30.5 4.1.1-.1 1.6-17.3 3.3-38.2l3.5-38.3c.1-.1 7.4-.1 16.2 0l15.9.3-10.7 34.5-10.9 35.6c0 1.2 27.4 8.9 29.3 8.1.6-.2 4.3-10 8.2-21.6l6.9-21.1H583v17h-34v24h62v-66h-38c-20.9 0-38-.1-38-.3s.7-2.7 1.5-5.5l1.6-5.2H618V90h-56V79h49V13h-59V0h-36v6.5zM583 46v8H473V38h110v8zm-56 38.5V90h-54V79h54v5.5z" fill="#ef8a64"/><path d="M0 24v17h74v152h34l.2-42.4.3-42.4 22 12.9c12.1 7.1 22.5 12.9 23.1 12.9 1.2 0 16.7-34.8 15.9-35.9-.2-.4-14.2-6.1-31-12.6L108 73.7V41h76V7H0v17z" fill="#8bccdc"/><path d="M224 52.7c0 45-.1 46.5-4 90.3l-3.5 44.8c.4.4 28.7 3.3 29 3 .1-.2 1.7-17.2 3.4-37.8 2.9-34.2 3.1-41.1 3.1-77.8V35h150V7H224v45.7zm39 5.8V71h69V46h-69zM368 54v8h-26v26h26v8.9c0 10.4 1.2 9.4-13.2 11.2-5.4.7-10.2 1.5-10.7 1.8-.8.5 5.2 30.8 6.4 31.9.3.3 10.1-1.2 15.3-2.3 2.2-.5 2.2-.5 2.2 11.5v12h-20v30h46V88h8V62h-8V46h-26v8zm-105 58v29h6.8l.4 11.2.3 11.6c-.1.1-2.5.5-5.4.9l-5.1.6v26.6l3.3-.5c1.7-.2 16.7-1.5 33.2-2.9l35.8-3.1 5.7-.6V160l-6.1.7-6.1.6.5-2.9c.3-1.6.9-6.2 1.2-10.2.6-6.2 1-7.2 2.6-7.2 1.8 0 1.9-1.2 1.9-29V83h-69v29zm48 .5v8.5h-27v-17h27v8.5zm-5 38.9v10.3l-3.7.7c-2.1.3-5.3.6-7 .6H292v-9.4c0-5.2-.3-10.1-.6-11-.5-1.4.5-1.6 7-1.6h7.6v10.4z" fill="#e23326"/></svg>
